<?xml version="1.0" encoding="UTF-8"?><svg xmlns="http://www.w3.org/2000/svg" height="100pt" version="1.1" viewBox="0 0 265.73 500" width="65.73pt">
 <defs>
  <clipPath id="clip1">
   <path d="m33 0h232.73v391h-232.73z"/>
  </clipPath>
 </defs>
 <g id="surface1">
  <g id="change1_1"><path d="m140.4 389c-1.29 17.6 1.6 33.9 4.3 51.1 0.3 1.8-2.59 2.7-3.09 0.9-4.91-16.7-4.5-35.1-2.81-52.2 0.1-1 1.7-0.8 1.6 0.2zm77.71-341.8c-9.11 24.801-20.41 61.201-20.41 61.201l-24.9 68.9s-0.69 8.8-19.9 56.8l-22.2 3.2s-18.9-48.3-21.09-58c-10.805-35.2-19.407-62.6-26.204-75.4-5.5-10.4-25-52.701-25-52.701s-3.101-6.097-10.5-6.597c-8.801-0.602-11.402 9.5-11.402 9.5s-1.5 1 1.601 18.597c7 39.701 19.2 89.401 19.2 89.401l14.199 47.9 4.5 29.5c-44.598 1.8-39.301 33.4-35.699 45.1 11.601 8 23 17.3 33 27 9.898 9.7 17.898 21.2 27.895 30.8-0.09-3.7 0.8-7.4 2.2-10 3.9-7.2 11.8-10.2 19.5-9 0.1-0.1 0.21-0.3 0.4-0.3-3.3-5.4-6.5-10.8-9.9-16.2-0.1-0.2-0.2-0.4-0.29-0.6h-0.11c-15.297-3.5-28.996-11.7-38.695-24.1-0.602-0.8-0.602-1.6-0.2-2.2-4.8-2.4-7.902-6.3-7.601-12.3 1.101-19.7 31.402-14.9 42.796-9.3 0.6 0.3 1 0.8 1.1 1.3h0.1c0.3-0.3 0.8-0.3 1.2-0.1 14.6-0.6 30.2-0.4 44.5 1.9 2.8 0.5 2.3 4.6-0.59 4.4-14.31-1.3-29-1.9-43.31-3.9 0.81 6.6-0.19 14.3-1.69 20.5-0.41 1.7-3 1.6-3.21 0.2-6.7 0.9-18.295 1.7-27.494-0.6 11.098 12.8 26.794 20.1 43.594 21.8 16.2 1.6 32.3-0.6 47.5 6.5 0.7 0.3 0.8 1.1 0.5 1.6 4.7 9.3 4.2 21.7 6.2 31.8 0.7 3.4 1.5 6.7 2.6 9.8 0.2 0.3 0.4 0.7 0.4 1.1 2.91 8.2 7.41 15.4 14.5 21.3 2.3 1.9-0.4 5.6-2.8 3.8-7.1-5.3-11.79-12.8-14.9-20.9-9.6 12.3-9.39 29.4-7.39 44.3 0.39 3.3-4.31 3.9-5 0.7-3.5-15.1-2.11-38.2 11.09-48.9-0.2-0.5-0.3-1.1-0.5-1.6-3.8-13.4-2.5-28.1-6.8-41.3-16.5-5.5-34.2-2.2-51.1-4.8 2.6 5.4 5.2 10.7 7.81 16.1 0.19 0.3 0.09 0.6-0.11 0.9 7.3 8.1 15.9 27.5 8.8 37.3-5.9 8.1-17.4 1.6-25.3-4.8 3.4 5.3 6 11.2 8 17.2 1.61 5.1 4.4 13.4 0.3 18.2s-12.5 1.1-17.3-0.8c-7.094-2.8-13.195-7.2-18.594-12.5-10.301-5.3-18.801-14.5-26.301-22.6-4.902-5.3-9.601-10.8-14.601-16.1-3.098-3.3-6.199-6.5-9.5-9.5-1.199-1-2.5-2.6-3.801-3.3-0.5-0.4-1.098-0.8-1.598-1.3-2.601 0.6-5.101 1.2-7.699 1.8-0.101 1.2-1.801 1.1-2 0-1.203-4.9 2.899-7.9 7.598-7.2 6.801 1.1 13.5 9.2 18.101 13.8 7.301 7.2 13.899 15 21 22.4 5.5 5.7 11.399 10.2 17.5 14.7 0.098-1.8 0.399-3.6 0.598-4.9 0.5-3.3 1.5-6.6 3.402-9.3 4.5-6.4 11.598-6.2 18.595-5.5-0.5-0.9-1.09-1.7-1.59-2.5 0-0.1 0-0.1-0.11-0.2-10.797-9.4-18.996-21.1-28.695-31.5-10.602-11.3-23.301-20.2-34.5-30.8-6.399-2.3-20-2.8-34.301 24.5-19.598 37.6 48.699 124.2 64.301 148.7 2 3.2 3.699 6.2 5 9 7.601-1.4 15.601-2.1 23-2.9 2.5-0.3 3 3.3 0.601 3.9-6.801 1.5-14.101 3.3-21.203 4.4 6.102 16 2.402 25.5 2.402 25.5l142.4-6.6-3.5-29.9c-5.89 1.3-11.89 2.4-17.89 3.4-3.21 0.5-3.81-4.3-0.71-4.9 6.8-1.2 13.71-2.5 20.71-3.3 13.39-16.1 18.5-108.7 20.5-137.3 0.59-8.3-0.11-15.4-1.41-21.3-2.09-3.4-3.09-7.4-5.09-11-3.31-6.1-8.91-9.8-15.21-12.5-11.4-5-23.7-5.4-35.5-8.8-1.2-0.3-0.79-2 0.3-2.2 12.8-2.5 29.1 2 40.6 7.8 1.2 0.6 2.4 1.3 3.5 2-0.19-27.2-0.4-54.1 1.9-68.7 3.5-22.1 18.41-79.4 18.41-79.4l9.59-53.3s13.7-37.602 6-58.102c-2.09-5.597-4.9-7.9996-7.2-9.0972-5.3-2.6016-5.39-1.9024-7.8-1-20.8 8.0002-29.09 41.398-29.09 41.398" fill="#cdb093"/></g>
  <g clip-path="url(#clip1)" id="change2_1">
   <path d="m58.305 46.398c-4.102-3.5-11.5-10-17.5-7.398-2.102 0.898-3.5 3.5-4.399 5.5-1.5 3.398-3.101 6.699-3.402 10.398-0.098 1.301 2 1.301 2 0 0.199-5.398 4.301-11.296 10-11.898 2-0.199 4.902-0.199 6.699 0.5 2 0.898 3.902 2.699 5.801 3.801 0.601 0.398 1.301-0.5 0.801-0.903zm181-40.097c5.4-3 10.6-4.6016 16.5-1.4024 4.2 2.3008 7.9 6.3006 8.31 11.102 0.09 1 1.39 1 1.5 0 1.79-16-16.81-20.699-27.21-10.898-0.6 0.5972 0.21 1.4996 0.9 1.1988zm-129.6 255.6c-9-3.7-16.696-4.8-21.696-5.1-10-0.6-12.801 1.7-13.699 2.5-3.5 3.2-4.7 9.1-3.2 12.8 3 7.3 17.801 10.1 37.005 6.2 0.19-2.3 0.39-4.7 0.59-7 0.2-3.1 0.6-6.3 1-9.4zm6.5 94.5c4.5 2.5 8.41 4.6 12.3 3.1 0.4-0.2 2.7-1 4.11-3.3 2.5-3.9 0.69-9.1-1.5-15.2-1.41-3.8-3.81-9.2-8-15.2-1.61-0.2-5.71-0.3-9.91 2.1-3.9 2.3-5.7 5.6-6.7 7.5-2.5 4.8-2.5 9.4-2.39 11.8 4.59 4.7 9 7.5 12.09 9.2zm-12.4 0c10.9 15.8 14.4 29.5 10.2 33.1-3.8 3.3-14.797-1.4-26.094-10.2-0.902-1.2-1.902-2.5-2.801-3.7-0.5-2.1-1.101-6.3 0.399-11.1 0.699-2 1.601-5 4.301-7.1 5.5-4.4 13.305-1.3 13.995-1" fill="#c14e33"/>
  </g>
  <g id="change3_1"><path d="m148.7 278.8c-1.2 2-2.4 4-3.59 6-0.11 0.1 0 0.9 0 0.9v2.2 2.2c0 0.2 0.09 0.8 0 0.9 1.19-2 2.39-4 3.59-6 0.1-0.1 0-0.9 0-0.9v-2.2-2.2c0.1-0.2 0-0.8 0-0.9zm32.41-2c-0.5 2.9-1.31 5.7-2.41 8.4-0.3 0.7-2.9 6.3-3.4 5.4v6.3c0-0.2 0.1-0.3 0.31-0.2-0.11 0 0.19-6.3 0-6.3-0.31 0-0.91 6.8 0.19 6.6 0.6-0.1 1.4-2.4 1.7-2.9 0.61-1.2 1.11-2.3 1.61-3.6 0.89-2.4 1.59-4.9 2-7.5 0.39-1.9-0.31-4.1 0-6.2zm36-111.9c-6.41-0.3-12.5-1.8-18.31-4.6 0.81 0.4-0.8 5.9 0 6.3 5.81 2.7 11.9 4.3 18.31 4.6 0-0.1 0.19-6.3 0-6.3zm24-85.502c-5.81-1.199-11.11-3.597-15.71-7.296 1 0.796-1 5.398 0 6.296 4.6 3.704 9.9 6.102 15.71 7.301-0.31-0.199 0.5-6.199 0-6.301zm-144.8 220.8c-2.602 2.2-1.899 2.1-3.399 5-0.301 0.7 0 2.4 0 3.1v2.2c0 0.2 0.098 0.7 0 0.9 0.797-1.5 1.699-2.9 2.699-4.2 1.2-1.5 2.301-1.7 3.5-3.6 0.895-1.5 0.7-1.9 0.598-2-0.098-0.1-0.297-0.1-0.5-0.2 0 0-0.098-0.1-0.199-0.1-0.098 0-0.098 0-0.199-0.1-0.301-0.1-0.899-0.3-0.899-0.4zm-27.399 27.4c-2.301 1.4-4.203 3.3-5.601 5.6-0.102 0.1 0 0.9 0 0.9v2.2 2.2c0 0.2 0.101 0.8 0 0.9 1.398-2.3 3.199-4.2 5.601-5.6 0.297-0.2 0-2.8 0-3.1v-2.2c0.098-0.1 0-0.9 0-0.9zm-28.601-27.4c-3.5-0.3-5.602 5.1-6.801 7.7-0.301 0.7 0 2.3 0 3.1v2.2c0 0.2 0.101 0.7 0 0.9 1.199-2.6 3.199-8 6.801-7.7-0.102 0.1 0.3-6.2 0-6.2zm48.199-155.1c-4.098 4.2-9 7.5-14.5 9.6-0.699 0.3 0.699 6 0 6.3 5.5-2.1 10.402-5.4 14.5-9.6 0.301-0.4 0-2.6 0-3.1 0.101-0.5-0.301-2.8 0-3.2zm-23.5-59.901c-0.301 0.199 0 2.699 0 3.102 0 0.398 0.301 2.898 0 3.097-2.699 2.204-5.801 3.801-9.098 4.903 0.098 0 0-2.903 0-3.102 0-0.301-0.101-3.097 0-3.097 3.297-1.102 6.399-2.704 9.098-4.903" fill="#f0cca9"/></g>
 </g>
</svg>